<?xml version="1.0" encoding="UTF-8" standalone="no"?>
<svg width="20px" height="20px" viewBox="0 0 20 20" version="1.1" xmlns="http://www.w3.org/2000/svg" xmlns:xlink="http://www.w3.org/1999/xlink">
    <!-- Generator: Sketch 3.8.2 (29753) - http://www.bohemiancoding.com/sketch -->
    <title>Edit Icon</title>
    <desc>Created with Sketch.</desc>
    <defs></defs>
    <g id="Page-1" stroke="none" stroke-width="1" fill="none" fill-rule="evenodd">
        <g id="Appointments-view" transform="translate(-1272.000000, -849.000000)" fill="#000000">
            <g id="Table" transform="translate(140.000000, 272.000000)">
                <g id="Body" transform="translate(0.000000, 43.000000)">
                    <g id="Row" transform="translate(0.000000, 528.000000)">
                        <g id="Edit-Icon" transform="translate(1132.000000, 6.000000)">
                            <g id="Layer_1">
                                <path d="M5.6183722,16.8610918 L1.38760297,17.7072456 L2.29275437,18.612397 L3.13890821,14.3816278 L2.92854368,14.7746975 L14.9285437,2.77469752 C15.6281404,2.07510083 16.5257058,2.07510083 17.2253025,2.77469752 C17.9248992,3.47429422 17.9248992,4.37185962 17.2253025,5.07145632 L5.22530248,17.0714563 L5.6183722,16.8610918 L5.6183722,16.8610918 Z M5.92008933,18.3696774 L6.14847083,18.3240011 L6.31315906,18.1593129 L18.3131591,6.15931291 C19.6135624,4.85890961 19.6135624,2.98724424 18.3131591,1.68684094 C17.0127558,0.386437636 15.1410904,0.386437636 13.8406871,1.68684094 L1.84068709,13.6868409 L1.67599886,13.8515292 L1.63032256,14.0799107 L0.784168711,18.3106799 L0.557880863,19.4421191 L1.6893201,19.2158313 L5.92008933,18.3696774 L5.92008933,18.3696774 Z" id="Shape"></path>
                                <polygon id="Shape" points="12.8406871 3.92854368 16.1483794 7.23623599 17.236236 6.1483794 13.9285437 2.84068709"></polygon>
                                <path d="M6.7501022,17.2141376 C6.29988814,15.2331958 4.76680424,13.7001119 2.78586239,13.2498978 L2.44490684,14.7501022 C3.84858037,15.0691189 4.93088109,16.1514196 5.2498978,17.5550932 L6.7501022,17.2141376 L6.7501022,17.2141376 Z" id="Shape"></path>
                            </g>
                        </g>
                    </g>
                </g>
            </g>
        </g>
    </g>
</svg>