<?xml version="1.0" encoding="utf-8"?>
<!-- Generator: Adobe Illustrator 18.1.1, SVG Export Plug-In . SVG Version: 6.00 Build 0)  -->
<svg xmlns="http://www.w3.org/2000/svg" xmlns:xlink="http://www.w3.org/1999/xlink" version="1.1" id="Layer_1" x="0px" y="0px" viewBox="0 0 26 26" enable-background="new 0 0 26 26" xml:space="preserve" fill="#000000">
<path d="M22,15H4c-0.6,0-1-0.4-1-1v-2c0-0.6,0.4-1,1-1h18c0.6,0,1,0.4,1,1v2C23,14.6,22.6,15,22,15z" fill="#000000"/>
<path d="M11,22V4c0-0.6,0.4-1,1-1h2c0.6,0,1,0.4,1,1v18c0,0.6-0.4,1-1,1h-2C11.4,23,11,22.6,11,22z" fill="#000000"/>
</svg>
