<?xml version="1.0" encoding="UTF-8" standalone="no"?>
<svg width="20px" height="20px" viewBox="0 0 20 20" version="1.1" xmlns="http://www.w3.org/2000/svg" xmlns:xlink="http://www.w3.org/1999/xlink">
    <!-- Generator: Sketch 3.8.2 (29753) - http://www.bohemiancoding.com/sketch -->
    <title>Print icon</title>
    <desc>Created with Sketch.</desc>
    <defs></defs>
    <g id="Page-1" stroke="none" stroke-width="1" fill="none" fill-rule="evenodd">
        <g id="Appointments-view" transform="translate(-1204.000000, -849.000000)" fill="#000000">
            <g id="Table" transform="translate(140.000000, 272.000000)">
                <g id="Body" transform="translate(0.000000, 43.000000)">
                    <g id="Row" transform="translate(0.000000, 528.000000)">
                        <g id="Print-icon" transform="translate(1064.000000, 6.000000)">
                            <path d="M16.1384615,6.15384615 L3.83076923,6.15384615 L4.6,6.92307692 L4.6,2.30769231 C4.6,1.88329596 4.94483442,1.53846154 5.36923077,1.53846154 L14.6,1.53846154 C15.0248405,1.53846154 15.3692308,1.88297079 15.3692308,2.30769231 L15.3692308,6.92307692 L16.1384615,6.15384615 L16.1384615,6.15384615 Z M16.1384615,7.69230769 L16.9076923,7.69230769 L16.9076923,6.92307692 L16.9076923,2.30769231 C16.9076923,1.03342087 15.8746283,0 14.6,0 L5.36923077,0 C4.09516558,0 3.06153846,1.03362712 3.06153846,2.30769231 L3.06153846,6.92307692 L3.06153846,7.69230769 L3.83076923,7.69230769 L16.1384615,7.69230769 L16.1384615,7.69230769 Z" id="Shape"></path>
                            <path d="M3.83076923,11.5384615 L16.1384615,11.5384615 L15.3692308,10.7692308 L15.3692308,17.6923077 C15.3692308,18.1170292 15.0248405,18.4615385 14.6,18.4615385 L5.36923077,18.4615385 C4.94483442,18.4615385 4.6,18.116704 4.6,17.6923077 L4.6,10.7692308 L3.83076923,11.5384615 L3.83076923,11.5384615 Z M3.83076923,10 L3.06153846,10 L3.06153846,10.7692308 L3.06153846,17.6923077 C3.06153846,18.9663729 4.09516558,20 5.36923077,20 L14.6,20 C15.8746283,20 16.9076923,18.9665791 16.9076923,17.6923077 L16.9076923,10.7692308 L16.9076923,10 L16.1384615,10 L3.83076923,10 L3.83076923,10 Z" id="Shape"></path>
                            <polygon id="Shape" points="6.15384615 14.6153846 13.8461538 14.6153846 13.8461538 13.0769231 6.15384615 13.0769231"></polygon>
                            <polygon id="Shape" points="6.15384615 16.9230769 11.5384615 16.9230769 11.5384615 15.3846154 6.15384615 15.3846154"></polygon>
                            <path d="M17.6923077,6.15384615 L2.30769231,6.15384615 C1.03384615,6.15384615 0,7.18769231 0,8.46153846 L0,13.0769231 C0,14.3507692 1.03384615,15.3846154 2.30769231,15.3846154 L3.06153846,15.3846154 L3.06153846,11.5384615 L16.9076923,11.5384615 L16.9076923,15.3846154 L17.6923077,15.3846154 C18.9661538,15.3846154 20,14.3507692 20,13.0769231 L20,8.46153846 C20,7.18769231 18.9661538,6.15384615 17.6923077,6.15384615 L17.6923077,6.15384615 Z M16.5384615,10 C15.9015385,10 15.3846154,9.48307692 15.3846154,8.84615385 C15.3846154,8.20923077 15.9015385,7.69230769 16.5384615,7.69230769 C17.1753846,7.69230769 17.6923077,8.20923077 17.6923077,8.84615385 C17.6923077,9.48307692 17.1753846,10 16.5384615,10 L16.5384615,10 Z" id="Shape"></path>
                        </g>
                    </g>
                </g>
            </g>
        </g>
    </g>
</svg>