<?xml version="1.0" encoding="UTF-8" standalone="no"?>
<svg width="20px" height="20px" viewBox="0 0 20 20" version="1.1" xmlns="http://www.w3.org/2000/svg" xmlns:xlink="http://www.w3.org/1999/xlink">
    <!-- Generator: Sketch 3.8.2 (29753) - http://www.bohemiancoding.com/sketch -->
    <title>View icon</title>
    <desc>Created with Sketch.</desc>
    <defs></defs>
    <g id="Page-1" stroke="none" stroke-width="1" fill="none" fill-rule="evenodd">
        <g id="Appointments-view" transform="translate(-1238.000000, -849.000000)" fill="#000000">
            <g id="Table" transform="translate(140.000000, 272.000000)">
                <g id="Body" transform="translate(0.000000, 43.000000)">
                    <g id="Row" transform="translate(0.000000, 528.000000)">
                        <g id="View-icon" transform="translate(1098.000000, 6.000000)">
                            <g id="Layer_1">
                                <g id="Group" transform="translate(8.888889, 8.888889)">
                                    <rect id="Rectangle-path" transform="translate(7.051448, 7.090559) rotate(-45.000000) translate(-7.051448, -7.090559) " x="6.60700797" y="6.16464221" width="0.888880364" height="1.85183409"></rect>
                                    <path d="M10.1481481,8.81481481 C10.4444444,9.11111111 10.4444444,9.55555556 10.1481481,9.85185185 L9.77777778,10.2222222 C9.48148148,10.5185185 9.03703704,10.5185185 8.74074074,10.2222222 L6.88888889,8.37037037 C6.59259259,8.07407407 6.59259259,7.62962963 6.88888889,7.33333333 L7.25925926,6.96296296 C7.55555556,6.66666667 8,6.66666667 8.2962963,6.96296296 L10.1481481,8.81481481 L10.1481481,8.81481481 Z" id="Shape"></path>
                                    <path d="M4.07407407,0 C1.85185185,0 0,1.85185185 0,4.07407407 C0,6.2962963 1.85185185,8.14814815 4.07407407,8.14814815 C6.2962963,8.14814815 8.14814815,6.2962963 8.14814815,4.07407407 C8.14814815,1.85185185 6.2962963,0 4.07407407,0 L4.07407407,0 Z M4.07407407,7.03703704 C2.44444444,7.03703704 1.11111111,5.7037037 1.11111111,4.07407407 C1.11111111,2.44444444 2.44444444,1.11111111 4.07407407,1.11111111 C5.7037037,1.11111111 7.03703704,2.44444444 7.03703704,4.07407407 C7.03703704,5.7037037 5.7037037,7.03703704 4.07407407,7.03703704 L4.07407407,7.03703704 Z" id="Shape"></path>
                                </g>
                                <path d="M9.18518519,17.037037 L2.96296296,17.037037 C2.14814815,17.037037 1.48148148,16.3703704 1.48148148,15.5555556 L1.48148148,2.96296296 C1.48148148,2.14814815 2.14814815,1.48148148 2.96296296,1.48148148 L7.62962963,1.48148148 C8.14814815,1.62962963 8.14814815,2.2962963 8.14814815,2.96296296 L8.14814815,5.18518519 C8.14814815,5.62962963 8.44444444,5.92592593 8.88888889,5.92592593 L11.1111111,5.92592593 C11.8518519,5.92592593 12.5925926,5.92592593 12.5925926,6.66666667 L12.5925926,7.40740741 L12.962963,7.40740741 C13.3333333,7.40740741 13.7037037,7.48148148 14.0740741,7.55555556 L14.0740741,5.92592593 C14.0740741,5.11111111 13.3333333,4.37037037 12.0740741,3.11111111 C11.8518519,2.96296296 11.7037037,2.74074074 11.4814815,2.59259259 C11.3333333,2.37037037 11.1111111,2.22222222 10.962963,2 C9.7037037,0.740740741 8.96296296,0 8.14814815,0 L2.96296296,0 C1.33333333,0 0,1.33333333 0,2.96296296 L0,15.5555556 C0,17.1851852 1.33333333,18.5185185 2.96296296,18.5185185 L11.1111111,18.5185185 C11.4074074,18.5185185 11.6296296,18.4444444 11.8518519,18.4444444 C10.8148148,18.2222222 9.92592593,17.7037037 9.18518519,17.037037 L9.18518519,17.037037 Z" id="Shape"></path>
                            </g>
                        </g>
                    </g>
                </g>
            </g>
        </g>
    </g>
</svg>