<?xml version="1.0" encoding="UTF-8" standalone="no"?>
<svg width="162px" height="78px" viewBox="0 0 162 78" version="1.1" xmlns="http://www.w3.org/2000/svg" xmlns:xlink="http://www.w3.org/1999/xlink" xmlns:sketch="http://www.bohemiancoding.com/sketch/ns">
    <!-- Generator: Sketch 3.5.2 (25235) - http://www.bohemiancoding.com/sketch -->
    <title>Artboard</title>
    <desc>Created with Sketch.</desc>
    <defs></defs>
    <g id="Page-1" stroke="none" stroke-width="1" fill="none" fill-rule="evenodd" sketch:type="MSPage">
        <g id="Artboard" sketch:type="MSArtboardGroup" fill="#FFFFFF">
            <path d="M40.982,59 L40.982,37.114 L25.11,37.114 L25.11,43.81 L33.17,43.81 C32.612,48.274 29.326,52.056 23.436,52.056 C16.182,52.056 11.16,47.22 11.16,37.3 C11.16,27.628 16.244,22.544 23.622,22.544 C28.52,22.544 32.054,25.272 34.286,30.728 L41.664,28.806 C39.37,20.56 32.984,15.104 23.622,15.104 C17.856,15.104 13.02,17.026 8.99,20.932 C4.96,24.838 2.976,30.294 2.976,37.3 C2.976,44.306 4.898,49.762 8.804,53.668 C12.71,57.574 17.422,59.496 23.002,59.496 C27.776,59.496 31.248,57.76 33.542,54.35 L34.224,59 L40.982,59 Z M52.9686668,54.97 C55.8206668,58.008 59.6646668,59.496 64.5626668,59.496 C69.4606668,59.496 73.3046668,58.008 76.1566668,54.97 C79.0086668,51.932 80.4346668,48.026 80.4346668,43.376 C80.4346668,38.726 79.0086668,34.882 76.1566668,31.844 C73.3046668,28.806 69.4606668,27.256 64.5626668,27.256 C59.6646668,27.256 55.8206668,28.806 52.9686668,31.844 C50.1166668,34.882 48.6906668,38.726 48.6906668,43.376 C48.6906668,48.026 50.1166668,51.932 52.9686668,54.97 L52.9686668,54.97 Z M58.8586668,36.618 C60.2846668,34.758 62.1446668,33.828 64.5626668,33.828 C66.9806668,33.828 68.8406668,34.758 70.2666668,36.618 C71.6926668,38.416 72.3746668,40.71 72.3746668,43.376 C72.3746668,46.042 71.6926668,48.336 70.2666668,50.196 C68.8406668,51.994 66.9806668,52.924 64.5626668,52.924 C62.1446668,52.924 60.2846668,51.994 58.8586668,50.196 C57.4326668,48.336 56.7506668,46.042 56.7506668,43.376 C56.7506668,40.71 57.4326668,38.416 58.8586668,36.618 L58.8586668,36.618 Z M93.7853335,37.424 C94.5913335,35.006 96.3893335,33.828 99.1793335,33.828 C102.837334,33.828 104.635334,35.378 104.635334,38.416 L104.635334,39.78 L99.4273335,39.78 C91.4913335,39.78 86.0973335,43.81 86.0973335,50.01 C86.0973335,56.024 90.0653335,59.496 95.5833335,59.496 C99.5513335,59.496 102.775334,58.008 105.193334,55.032 L105.999334,59 L112.323334,59 L112.323334,40.338 C112.323334,31.596 107.921334,27.256 99.1793335,27.256 C92.9173335,27.256 88.2673335,30.728 87.2753335,35.936 L93.7853335,37.424 Z M94.1573335,49.886 C94.1573335,47.22 95.9553335,45.856 99.4893335,45.856 L104.635334,45.856 L104.635334,46.476 C104.635334,48.398 103.891334,49.948 102.403334,51.126 C100.977334,52.304 99.3033335,52.924 97.3813335,52.924 C95.3353335,52.924 94.1573335,51.56 94.1573335,49.886 L94.1573335,49.886 Z M120.466,59 L128.154,59 L128.154,15.104 L120.466,15.104 L120.466,59 Z M146.960667,27.256 C144.046667,27.256 141.628667,28.124 139.768667,29.922 C137.908667,31.72 136.978667,33.828 136.978667,36.37 C136.978667,40.834 139.334667,43.128 143.302667,44.802 C144.480667,45.298 146.650667,45.98 147.704667,46.476 C148.262667,46.662 148.882667,46.91 149.440667,47.22 C150.618667,47.778 151.114667,48.584 151.114667,49.576 C151.114667,51.808 149.812667,52.924 147.270667,52.924 C144.356667,52.924 142.248667,51.188 141.008667,47.778 L134.870667,51.064 C135.800667,53.296 137.350667,55.28 139.520667,56.954 C141.690667,58.628 144.294667,59.496 147.270667,59.496 C150.556667,59.496 153.222667,58.504 155.268667,56.458 C157.314667,54.412 158.368667,51.994 158.368667,49.08 C158.368667,46.91 157.376667,45.05 156.446667,43.996 C156.012667,43.438 155.268667,42.942 154.214667,42.384 C153.222667,41.826 152.478667,41.392 151.982667,41.206 L149.316667,40.276 L147.084667,39.47 C145.100667,38.726 144.108667,37.734 144.108667,36.432 C144.108667,34.758 145.410667,33.828 146.960667,33.828 C149.006667,33.828 150.742667,34.758 152.168667,36.556 L156.756667,32.34 C154.772667,29.302 151.114667,27.256 146.960667,27.256 L146.960667,27.256 Z" id="Goals" sketch:type="MSShapeGroup"></path>
        </g>
    </g>
</svg>